<svg width="1529" height="479" viewBox="0 0 1529 479" fill="none" xmlns="http://www.w3.org/2000/svg">
<path d="M447.574 381H410.152C407.226 381 405.07 380.384 403.684 379.152C402.452 377.766 401.836 375.61 401.836 372.684V259.263H367.879C364.953 259.263 362.797 258.647 361.411 257.415C360.179 256.029 359.563 253.873 359.563 250.947V222.996C359.563 220.07 360.179 217.991 361.411 216.759C362.797 215.373 364.953 214.68 367.879 214.68H489.847C492.773 214.68 494.852 215.373 496.084 216.759C497.47 217.991 498.163 220.07 498.163 222.996V250.947C498.163 253.873 497.47 256.029 496.084 257.415C494.852 258.647 492.773 259.263 489.847 259.263H455.89V372.684C455.89 375.61 455.197 377.766 453.811 379.152C452.579 380.384 450.5 381 447.574 381ZM666.85 337.341C666.85 344.425 665.772 350.893 663.616 356.745C661.614 362.443 657.918 367.371 652.528 371.529C647.292 375.533 640.054 378.69 630.814 381C621.574 383.31 609.793 384.465 595.471 384.465C581.149 384.465 569.368 383.31 560.128 381C550.888 378.69 543.573 375.533 538.183 371.529C532.947 367.371 529.251 362.443 527.095 356.745C525.093 350.893 524.092 344.425 524.092 337.341V222.996C524.092 220.07 524.708 217.991 525.94 216.759C527.326 215.373 529.482 214.68 532.408 214.68H568.675C571.601 214.68 573.68 215.373 574.912 216.759C576.298 217.991 576.991 220.07 576.991 222.996V328.332C576.991 331.412 578.146 334.03 580.456 336.186C582.766 338.188 587.925 339.189 595.933 339.189C604.095 339.189 609.331 338.188 611.641 336.186C613.951 334.03 615.106 331.412 615.106 328.332V222.996C615.106 220.07 615.722 217.991 616.954 216.759C618.34 215.373 620.496 214.68 623.422 214.68H658.534C661.46 214.68 663.539 215.373 664.771 216.759C666.157 217.991 666.85 220.07 666.85 222.996V337.341ZM745.181 381H710.531C707.605 381 705.449 380.384 704.063 379.152C702.831 377.766 702.215 375.61 702.215 372.684V222.996C702.215 220.07 702.831 217.991 704.063 216.759C705.449 215.373 707.605 214.68 710.531 214.68H734.555C737.481 214.68 739.945 215.142 741.947 216.066C744.103 216.99 746.182 218.607 748.184 220.917L792.998 272.199V222.996C792.998 220.07 793.614 217.991 794.846 216.759C796.232 215.373 798.388 214.68 801.314 214.68H835.964C838.89 214.68 840.969 215.373 842.201 216.759C843.587 217.991 844.28 220.07 844.28 222.996V372.684C844.28 375.61 843.587 377.766 842.201 379.152C840.969 380.384 838.89 381 835.964 381H801.314C798.388 381 796.232 380.384 794.846 379.152C793.614 377.766 792.998 375.61 792.998 372.684V344.271L753.497 296.454V372.684C753.497 375.61 752.804 377.766 751.418 379.152C750.186 380.384 748.107 381 745.181 381ZM996.262 381H889.078C886.152 381 883.996 380.384 882.61 379.152C881.378 377.766 880.762 375.61 880.762 372.684V222.996C880.762 220.07 881.378 217.991 882.61 216.759C883.996 215.373 886.152 214.68 889.078 214.68H996.262C999.188 214.68 1001.27 215.373 1002.5 216.759C1003.88 217.991 1004.58 220.07 1004.58 222.996V250.023C1004.58 252.949 1003.88 255.105 1002.5 256.491C1001.27 257.723 999.188 258.339 996.262 258.339H932.506V276.126H977.551C980.477 276.126 982.556 276.819 983.788 278.205C985.174 279.437 985.867 281.516 985.867 284.442V309.159C985.867 312.085 985.174 314.241 983.788 315.627C982.556 316.859 980.477 317.475 977.551 317.475H932.506V337.341H996.262C999.188 337.341 1001.27 338.034 1002.5 339.42C1003.88 340.652 1004.58 342.731 1004.58 345.657V372.684C1004.58 375.61 1003.88 377.766 1002.5 379.152C1001.27 380.384 999.188 381 996.262 381ZM1133.54 381H1044.84C1041.91 381 1039.76 380.384 1038.37 379.152C1037.14 377.766 1036.52 375.61 1036.52 372.684V222.996C1036.52 220.07 1037.14 217.991 1038.37 216.759C1039.76 215.373 1041.91 214.68 1044.84 214.68H1118.53C1133.62 214.68 1144.79 217.606 1152.02 223.458C1159.26 229.156 1162.88 238.011 1162.88 250.023V261.111C1162.88 267.579 1161.73 272.892 1159.42 277.05C1157.26 281.054 1153.87 284.057 1149.25 286.059C1159.11 286.983 1166.42 290.371 1171.2 296.223C1175.97 302.075 1178.36 310.622 1178.36 321.864V343.116C1178.36 356.052 1174.66 365.6 1167.27 371.76C1160.03 377.92 1148.79 381 1133.54 381ZM1088.5 253.95V278.898H1108.13C1111.06 278.898 1113.22 278.128 1114.6 276.588C1116.14 275.048 1116.91 272.738 1116.91 269.658V263.19C1116.91 260.11 1116.14 257.8 1114.6 256.26C1113.22 254.72 1111.06 253.95 1108.13 253.95H1088.5ZM1088.5 314.472V341.73H1118.53C1121.46 341.73 1123.61 340.96 1125 339.42C1126.54 337.88 1127.31 335.57 1127.31 332.49V323.481C1127.31 320.401 1126.54 318.168 1125 316.782C1123.61 315.242 1121.46 314.472 1118.53 314.472H1088.5ZM1350.13 337.341C1350.13 344.425 1349.05 350.893 1346.9 356.745C1344.9 362.443 1341.2 367.371 1335.81 371.529C1330.57 375.533 1323.34 378.69 1314.1 381C1304.86 383.31 1293.08 384.465 1278.75 384.465C1264.43 384.465 1252.65 383.31 1243.41 381C1234.17 378.69 1226.86 375.533 1221.47 371.529C1216.23 367.371 1212.53 362.443 1210.38 356.745C1208.38 350.893 1207.37 344.425 1207.37 337.341V222.996C1207.37 220.07 1207.99 217.991 1209.22 216.759C1210.61 215.373 1212.76 214.68 1215.69 214.68H1251.96C1254.88 214.68 1256.96 215.373 1258.19 216.759C1259.58 217.991 1260.27 220.07 1260.27 222.996V328.332C1260.27 331.412 1261.43 334.03 1263.74 336.186C1266.05 338.188 1271.21 339.189 1279.22 339.189C1287.38 339.189 1292.61 338.188 1294.92 336.186C1297.23 334.03 1298.39 331.412 1298.39 328.332V222.996C1298.39 220.07 1299 217.991 1300.24 216.759C1301.62 215.373 1303.78 214.68 1306.7 214.68H1341.82C1344.74 214.68 1346.82 215.373 1348.05 216.759C1349.44 217.991 1350.13 220.07 1350.13 222.996V337.341ZM1471.66 381H1393.81C1390.89 381 1388.73 380.384 1387.34 379.152C1386.11 377.766 1385.5 375.61 1385.5 372.684V222.996C1385.5 220.07 1386.11 217.991 1387.34 216.759C1388.73 215.373 1390.89 214.68 1393.81 214.68H1471.66C1490.91 214.68 1505.15 218.53 1514.39 226.23C1523.79 233.93 1528.49 245.788 1528.49 261.804V333.876C1528.49 349.892 1523.79 361.75 1514.39 369.45C1505.15 377.15 1490.91 381 1471.66 381ZM1437.93 258.801V337.341H1465.42C1469.12 337.341 1471.81 336.417 1473.51 334.569C1475.36 332.721 1476.28 329.872 1476.28 326.022V269.889C1476.28 266.039 1475.36 263.267 1473.51 261.573C1471.81 259.725 1469.12 258.801 1465.42 258.801H1437.93Z" fill="#2CA6B7"/>
<path fill-rule="evenodd" clip-rule="evenodd" d="M211.18 3.3904C208.304 1.25021 204.752 0 200.925 0C191.388 0 183.585 7.81911 183.585 17.3758V163.205H157.555C70.7106 163.205 0 234.065 0 321.092C0 408.119 70.7106 479 157.555 479C244.4 479 315.132 408.141 315.132 321.092V260.256H280.432V321.092C280.432 388.942 225.263 444.227 157.555 444.227C89.8684 444.227 34.6998 388.942 34.6998 321.092C34.6998 253.263 89.8684 197.978 157.555 197.978H183.585V260.277H157.555C124.166 260.277 96.8464 287.654 96.8464 321.113C96.8464 354.572 124.166 381.971 157.555 381.971C190.944 381.971 218.264 354.593 218.264 321.113V318.698C218.264 247.393 218.264 176.089 218.264 104.785C269.563 98.6183 289.947 147.376 279.459 251.08C313.694 201.051 325.133 131.908 269.626 76.4747C260.83 67.6809 251.568 59.1201 243.131 50.3898C230.486 37.3368 214.669 5.97558 211.18 3.3904Z" fill="url(#paint0_linear_0_1)"/>
<defs>
<linearGradient id="paint0_linear_0_1" x1="445.473" y1="232.857" x2="-9.63637" y2="480.696" gradientUnits="userSpaceOnUse">
<stop stop-color="#2CA6B7"/>
<stop offset="1" stop-color="#2CA6B7"/>
</linearGradient>
</defs>
</svg>
