<svg width="1574" height="479" viewBox="0 0 1574 479" fill="none" xmlns="http://www.w3.org/2000/svg">
<path d="M492.574 381H455.152C452.226 381 450.07 380.384 448.684 379.152C447.452 377.766 446.836 375.61 446.836 372.684V259.263H412.879C409.953 259.263 407.797 258.647 406.411 257.415C405.179 256.029 404.563 253.873 404.563 250.947V222.996C404.563 220.07 405.179 217.991 406.411 216.759C407.797 215.373 409.953 214.68 412.879 214.68H534.847C537.773 214.68 539.852 215.373 541.084 216.759C542.47 217.991 543.163 220.07 543.163 222.996V250.947C543.163 253.873 542.47 256.029 541.084 257.415C539.852 258.647 537.773 259.263 534.847 259.263H500.89V372.684C500.89 375.61 500.197 377.766 498.811 379.152C497.579 380.384 495.5 381 492.574 381ZM711.85 337.341C711.85 344.425 710.772 350.893 708.616 356.745C706.614 362.443 702.918 367.371 697.528 371.529C692.292 375.533 685.054 378.69 675.814 381C666.574 383.31 654.793 384.465 640.471 384.465C626.149 384.465 614.368 383.31 605.128 381C595.888 378.69 588.573 375.533 583.183 371.529C577.947 367.371 574.251 362.443 572.095 356.745C570.093 350.893 569.092 344.425 569.092 337.341V222.996C569.092 220.07 569.708 217.991 570.94 216.759C572.326 215.373 574.482 214.68 577.408 214.68H613.675C616.601 214.68 618.68 215.373 619.912 216.759C621.298 217.991 621.991 220.07 621.991 222.996V328.332C621.991 331.412 623.146 334.03 625.456 336.186C627.766 338.188 632.925 339.189 640.933 339.189C649.095 339.189 654.331 338.188 656.641 336.186C658.951 334.03 660.106 331.412 660.106 328.332V222.996C660.106 220.07 660.722 217.991 661.954 216.759C663.34 215.373 665.496 214.68 668.422 214.68H703.534C706.46 214.68 708.539 215.373 709.771 216.759C711.157 217.991 711.85 220.07 711.85 222.996V337.341ZM790.181 381H755.531C752.605 381 750.449 380.384 749.063 379.152C747.831 377.766 747.215 375.61 747.215 372.684V222.996C747.215 220.07 747.831 217.991 749.063 216.759C750.449 215.373 752.605 214.68 755.531 214.68H779.555C782.481 214.68 784.945 215.142 786.947 216.066C789.103 216.99 791.182 218.607 793.184 220.917L837.998 272.199V222.996C837.998 220.07 838.614 217.991 839.846 216.759C841.232 215.373 843.388 214.68 846.314 214.68H880.964C883.89 214.68 885.969 215.373 887.201 216.759C888.587 217.991 889.28 220.07 889.28 222.996V372.684C889.28 375.61 888.587 377.766 887.201 379.152C885.969 380.384 883.89 381 880.964 381H846.314C843.388 381 841.232 380.384 839.846 379.152C838.614 377.766 837.998 375.61 837.998 372.684V344.271L798.497 296.454V372.684C798.497 375.61 797.804 377.766 796.418 379.152C795.186 380.384 793.107 381 790.181 381ZM1041.26 381H934.078C931.152 381 928.996 380.384 927.61 379.152C926.378 377.766 925.762 375.61 925.762 372.684V222.996C925.762 220.07 926.378 217.991 927.61 216.759C928.996 215.373 931.152 214.68 934.078 214.68H1041.26C1044.19 214.68 1046.27 215.373 1047.5 216.759C1048.88 217.991 1049.58 220.07 1049.58 222.996V250.023C1049.58 252.949 1048.88 255.105 1047.5 256.491C1046.27 257.723 1044.19 258.339 1041.26 258.339H977.506V276.126H1022.55C1025.48 276.126 1027.56 276.819 1028.79 278.205C1030.17 279.437 1030.87 281.516 1030.87 284.442V309.159C1030.87 312.085 1030.17 314.241 1028.79 315.627C1027.56 316.859 1025.48 317.475 1022.55 317.475H977.506V337.341H1041.26C1044.19 337.341 1046.27 338.034 1047.5 339.42C1048.88 340.652 1049.58 342.731 1049.58 345.657V372.684C1049.58 375.61 1048.88 377.766 1047.5 379.152C1046.27 380.384 1044.19 381 1041.26 381ZM1178.54 381H1089.84C1086.91 381 1084.76 380.384 1083.37 379.152C1082.14 377.766 1081.52 375.61 1081.52 372.684V222.996C1081.52 220.07 1082.14 217.991 1083.37 216.759C1084.76 215.373 1086.91 214.68 1089.84 214.68H1163.53C1178.62 214.68 1189.79 217.606 1197.02 223.458C1204.26 229.156 1207.88 238.011 1207.88 250.023V261.111C1207.88 267.579 1206.73 272.892 1204.42 277.05C1202.26 281.054 1198.87 284.057 1194.25 286.059C1204.11 286.983 1211.42 290.371 1216.2 296.223C1220.97 302.075 1223.36 310.622 1223.36 321.864V343.116C1223.36 356.052 1219.66 365.6 1212.27 371.76C1205.03 377.92 1193.79 381 1178.54 381ZM1133.5 253.95V278.898H1153.13C1156.06 278.898 1158.22 278.128 1159.6 276.588C1161.14 275.048 1161.91 272.738 1161.91 269.658V263.19C1161.91 260.11 1161.14 257.8 1159.6 256.26C1158.22 254.72 1156.06 253.95 1153.13 253.95H1133.5ZM1133.5 314.472V341.73H1163.53C1166.46 341.73 1168.61 340.96 1170 339.42C1171.54 337.88 1172.31 335.57 1172.31 332.49V323.481C1172.31 320.401 1171.54 318.168 1170 316.782C1168.61 315.242 1166.46 314.472 1163.53 314.472H1133.5ZM1395.13 337.341C1395.13 344.425 1394.05 350.893 1391.9 356.745C1389.9 362.443 1386.2 367.371 1380.81 371.529C1375.57 375.533 1368.34 378.69 1359.1 381C1349.86 383.31 1338.08 384.465 1323.75 384.465C1309.43 384.465 1297.65 383.31 1288.41 381C1279.17 378.69 1271.86 375.533 1266.47 371.529C1261.23 367.371 1257.53 362.443 1255.38 356.745C1253.38 350.893 1252.37 344.425 1252.37 337.341V222.996C1252.37 220.07 1252.99 217.991 1254.22 216.759C1255.61 215.373 1257.76 214.68 1260.69 214.68H1296.96C1299.88 214.68 1301.96 215.373 1303.19 216.759C1304.58 217.991 1305.27 220.07 1305.27 222.996V328.332C1305.27 331.412 1306.43 334.03 1308.74 336.186C1311.05 338.188 1316.21 339.189 1324.22 339.189C1332.38 339.189 1337.61 338.188 1339.92 336.186C1342.23 334.03 1343.39 331.412 1343.39 328.332V222.996C1343.39 220.07 1344 217.991 1345.24 216.759C1346.62 215.373 1348.78 214.68 1351.7 214.68H1386.82C1389.74 214.68 1391.82 215.373 1393.05 216.759C1394.44 217.991 1395.13 220.07 1395.13 222.996V337.341ZM1516.66 381H1438.81C1435.89 381 1433.73 380.384 1432.34 379.152C1431.11 377.766 1430.5 375.61 1430.5 372.684V222.996C1430.5 220.07 1431.11 217.991 1432.34 216.759C1433.73 215.373 1435.89 214.68 1438.81 214.68H1516.66C1535.91 214.68 1550.15 218.53 1559.39 226.23C1568.79 233.93 1573.49 245.788 1573.49 261.804V333.876C1573.49 349.892 1568.79 361.75 1559.39 369.45C1550.15 377.15 1535.91 381 1516.66 381ZM1482.93 258.801V337.341H1510.42C1514.12 337.341 1516.81 336.417 1518.51 334.569C1520.36 332.721 1521.28 329.872 1521.28 326.022V269.889C1521.28 266.039 1520.36 263.267 1518.51 261.573C1516.81 259.725 1514.12 258.801 1510.42 258.801H1482.93Z" fill="#2CA6B7"/>
<path fill-rule="evenodd" clip-rule="evenodd" d="M211.18 3.3904C208.304 1.25021 204.752 0 200.925 0C191.388 0 183.585 7.81911 183.585 17.3758V163.205H157.555C70.7106 163.205 0 234.065 0 321.092C0 408.119 70.7106 479 157.555 479C244.4 479 315.132 408.141 315.132 321.092V260.256H280.432V321.092C280.432 388.942 225.263 444.227 157.555 444.227C89.8684 444.227 34.6998 388.942 34.6998 321.092C34.6998 253.263 89.8684 197.978 157.555 197.978H183.585V260.277H157.555C124.166 260.277 96.8464 287.654 96.8464 321.113C96.8464 354.572 124.166 381.971 157.555 381.971C190.944 381.971 218.264 354.593 218.264 321.113V318.698C218.264 247.393 218.264 176.089 218.264 104.785C269.563 98.6183 289.947 147.376 279.459 251.08C313.694 201.051 325.133 131.908 269.626 76.4747C260.83 67.6809 251.568 59.1201 243.131 50.3898C230.486 37.3368 214.669 5.97558 211.18 3.3904Z" fill="url(#paint0_linear_0_1)"/>
<defs>
<linearGradient id="paint0_linear_0_1" x1="445.473" y1="232.857" x2="-9.63637" y2="480.696" gradientUnits="userSpaceOnUse">
<stop stop-color="#2CA6B7"/>
<stop offset="1" stop-color="#2CA6B7"/>
</linearGradient>
</defs>
</svg>
